<?xml version="1.0" encoding="UTF-8"?>
<svg width="61px" height="87px" viewBox="0 0 61 87" version="1.1" xmlns="http://www.w3.org/2000/svg" xmlns:xlink="http://www.w3.org/1999/xlink">
    <!-- Generator: Sketch 43.2 (39069) - http://www.bohemiancoding.com/sketch -->
    <title>Artboard</title>
    <desc>Created with Sketch.</desc>
    <defs></defs>
    <g id="Page-1" stroke="none" stroke-width="1" fill="none" fill-rule="evenodd">
        <g id="Artboard" fill="#000000">
            <g id="logo" fill-rule="nonzero">
                <path d="M59,6 L55,6 L55,8 L58,8 L58,37 L52,37 C51.4477153,37 51,37.4477153 51,38 L51,44 L37,44 L37,46 L52,46 C52.2650858,45.9993974 52.5191981,45.8940863 52.707,45.707 L59.707,38.707 C59.7905961,38.6220334 59.8583283,38.5228057 59.907,38.414 C59.921,38.383 59.929,38.353 59.94,38.321 C59.9687972,38.2370257 59.9862842,38.1495906 59.992,38.061 C59.992,38.04 60.004,38.021 60.004,38 L60.004,7 C60.0040021,6.73408901 59.8980964,6.47912703 59.709694,6.29147524 C59.5212916,6.10382345 59.2659089,5.99893636 59,6 Z M53,42.586 L53,39 L56.586,39 L53,42.586 Z" id="Shape"></path>
                <path d="M4,46 L10,46 L10,44 L4,44 C2.8954305,44 2,43.1045695 2,42 C2,40.8954305 2.8954305,40 4,40 L7,40 C7.55228475,40 8,39.5522847 8,39 L8,8 L42,8 L42,6 L8,6 L8,1 C8,0.44771525 7.55228475,0 7,0 L4,0 C1.790861,0 4.4408921e-16,1.790861 0,4 L0,42 C4.4408921e-16,44.209139 1.790861,46 4,46 Z M2,4 C2,2.8954305 2.8954305,2 4,2 L6,2 L6,38 L4,38 C3.29756593,37.9989121 2.60741957,38.1842164 2,38.537 L2,4 Z" id="Shape"></path>
                <path d="M44,1 L44,33 C44,33.5522847 44.4477153,34 45,34 L52,34 C52.5522847,34 53,33.5522847 53,33 L53,1 C53,0.44771525 52.5522847,0 52,0 L45,0 C44.4477153,0 44,0.44771525 44,1 Z M51,2 L51,32 L46,32 L46,30 L48,30 L48,28 L46,28 L46,26 L48,26 L48,24 L46,24 L46,22 L48,22 L48,20 L46,20 L46,18 L48,18 L48,16 L46,16 L46,14 L48,14 L48,12 L46,12 L46,10 L48,10 L48,8 L46,8 L46,6 L48,6 L48,4 L46,4 L46,2 L51,2 Z" id="Shape"></path>
                <path d="M12.617,25.076 C12.2434093,25.2308963 11.9998982,25.5955709 12,26 L12,55 C12,55.5522847 12.4477153,56 13,56 L42,56 C42.4043959,55.9999137 42.7689341,55.7562725 42.923678,55.3826546 C43.0784219,55.0090366 42.9929079,54.5789943 42.707,54.293 L13.707,25.293 C13.4210145,25.0068347 12.9907776,24.9211821 12.617,25.076 Z M14,28.414 L39.586,54 L14,54 L14,28.414 Z" id="Shape"></path>
                <path d="M30.707,49.293 L18.707,37.293 C18.4210057,37.0070921 17.9909634,36.9215781 17.6173454,37.076322 C17.2437275,37.2310659 17.0000863,37.5956041 17,38 L17,50 C17,50.5522847 17.4477153,51 18,51 L30,51 C30.4043959,50.9999137 30.7689341,50.7562725 30.923678,50.3826546 C31.0784219,50.0090366 30.9929079,49.5789943 30.707,49.293 Z M19,49 L19,40.414 L27.586,49 L19,49 Z" id="Shape"></path>
                <path d="M37.707,40.707 L39.707,38.707 C39.8945494,38.5195073 39.9999434,38.2651948 40,38 L40,16 C40,14.3431458 38.6568542,13 37,13 C35.3431458,13 34,14.3431458 34,16 L34,38 C34.0000566,38.2651948 34.1054506,38.5195073 34.293,38.707 L36.293,40.707 C36.6834999,41.0973819 37.3165001,41.0973819 37.707,40.707 L37.707,40.707 Z M37,15 C37.5522847,15 38,15.4477153 38,16 L38,17 L36,17 L36,16 C36,15.4477153 36.4477153,15 37,15 Z M36,37.586 L36,19 L38,19 L38,37.586 L37,38.586 L36,37.586 Z" id="Shape"></path>
                <path d="M23,21 L29,21 C29.5522847,21 30,20.5522847 30,20 L30,14 C30,13.4477153 29.5522847,13 29,13 L22,13 C19.790861,13 18,14.790861 18,17 C18,19.209139 19.790861,21 22,21 L23,21 Z M28,15 L28,19 L24,19 L24,15 L28,15 Z M20,17 C20,15.8954305 20.8954305,15 22,15 L22,19 C20.8954305,19 20,18.1045695 20,17 Z" id="Shape"></path>
            </g>
            <g id="Group-2" transform="translate(1.000000, 64.000000)">
                <path d="M8.048,5.136 C9.248006,5.136 10.2959955,5.42799708 11.192,6.012 C12.0880045,6.59600292 12.7719976,7.38399504 13.244,8.376 C13.7160024,9.36800496 13.952,10.4799938 13.952,11.712 C13.952,12.9440062 13.7000025,14.059995 13.196,15.06 C12.6919975,16.060005 11.9880045,16.8519971 11.084,17.436 C10.1799955,18.0200029 9.15200576,18.312 8,18.312 C6.99199496,18.312 6.11600372,18.108002 5.372,17.7 C4.62799628,17.291998 4.02400232,16.7200037 3.56,15.984 L3.56,22.944 L0.992,22.944 L0.992,5.472 L3.464,5.472 L3.536,7.608 C4.00000232,6.82399608 4.61599616,6.21600216 5.384,5.784 C6.15200384,5.35199784 7.03999496,5.136 8.048,5.136 Z M7.4,16.008 C8.13600368,16.008 8.79999704,15.8320018 9.392,15.48 C9.98400296,15.1279982 10.4519983,14.6280032 10.796,13.98 C11.1400017,13.3319968 11.312,12.5840042 11.312,11.736 C11.312,10.8719957 11.1520016,10.1120033 10.832,9.456 C10.5119984,8.79999672 10.0680028,8.30000172 9.5,7.956 C8.93199716,7.61199828 8.28000368,7.44 7.544,7.44 C6.80799632,7.44 6.13600304,7.61199828 5.528,7.956 C4.91999696,8.30000172 4.44000176,8.79999672 4.088,9.456 C3.73599824,10.1120033 3.56,10.8719957 3.56,11.736 C3.56,12.6160044 3.72399836,13.3759968 4.052,14.016 C4.38000164,14.6560032 4.83599708,15.1479983 5.42,15.492 C6.00400292,15.8360017 6.66399632,16.008 7.4,16.008 Z M28.024,18.288 C26.823994,18.288 25.7480048,18.0240026 24.796,17.496 C23.8439952,16.9679974 23.0960027,16.2120049 22.552,15.228 C22.0079973,14.2439951 21.736,13.0800067 21.736,11.736 C21.736,10.4719937 22.0159972,9.34400496 22.576,8.352 C23.1360028,7.35999504 23.911995,6.58800276 24.904,6.036 C25.896005,5.48399724 27.0079938,5.208 28.24,5.208 C30.048009,5.208 31.5359942,5.77599432 32.704,6.912 L31.312,8.784 C30.8959979,8.36799792 30.4440024,8.05600104 29.956,7.848 C29.4679976,7.63999896 28.928003,7.536 28.336,7.536 C27.5999963,7.536 26.928003,7.71199824 26.32,8.064 C25.711997,8.41600176 25.2360017,8.9119968 24.892,9.552 C24.5479983,10.1920032 24.376,10.9279958 24.376,11.76 C24.376,12.6560045 24.5479983,13.4159969 24.892,14.04 C25.2360017,14.6640031 25.6959971,15.1359984 26.272,15.456 C26.8480029,15.7760016 27.4879965,15.936 28.192,15.936 C28.8160031,15.936 29.3799975,15.832001 29.884,15.624 C30.3880025,15.415999 30.8879975,15.0720024 31.384,14.592 L32.776,16.392 C32.1199967,17.0320032 31.4120038,17.5079984 30.652,17.82 C29.8919962,18.1320016 29.016005,18.288 28.024,18.288 Z" id="picto"></path>
                <g id="Group" transform="translate(15.500000, 0.000000)">
                    <path d="M2.344,3.12 C1.84799752,3.12 1.44400156,2.97600144 1.132,2.688 C0.81999844,2.39999856 0.664,2.02400232 0.664,1.56 C0.664,1.09599768 0.81999844,0.72000144 1.132,0.432 C1.44400156,0.14399856 1.84799752,0 2.344,0 C2.8240024,0 3.2239984,0.14799852 3.544,0.444 C3.8640016,0.74000148 4.024,1.11199776 4.024,1.56 C4.024,2.00800224 3.8640016,2.37999852 3.544,2.676 C3.2239984,2.97200148 2.8240024,3.12 2.344,3.12 Z" id="Path"></path>
                    <polygon id="Path" points="1.048 5.472 3.616 5.472 3.616 18 1.048 18"></polygon>
                </g>
                <path d="M43.96,17.184 C42.951995,17.9360038 41.848006,18.312 40.648,18.312 C39.3999938,18.312 38.4040037,17.9720034 37.66,17.292 C36.9159963,16.6119966 36.544,15.5600071 36.544,14.136 L36.544,7.68 L34,7.68 L34.576,5.472 L36.544,5.472 L36.544,2.016 L39.112,2.016 L39.112,5.472 L43.72,5.472 L43.72,7.68 L39.112,7.68 L39.112,14.112 C39.112,14.720003 39.2759984,15.1839984 39.604,15.504 C39.9320016,15.8240016 40.3679973,15.984 40.912,15.984 C41.2960019,15.984 41.6439984,15.9240006 41.956,15.804 C42.2680016,15.6839994 42.5999982,15.4960013 42.952,15.24 L43.96,17.184 Z" id="Path"></path>
                <path d="M51.6879998,18.312 C50.519994,18.312 49.4400048,18.0480026 48.4479998,17.52 C47.4559949,16.9919974 46.6600028,16.228005 46.0599998,15.228 C45.4599968,14.227995 45.1599998,13.0640066 45.1599998,11.736 C45.1599998,10.3919933 45.4559969,9.220005 46.0479998,8.22 C46.6400028,7.219995 47.4359948,6.45600264 48.4359998,5.928 C49.4360048,5.39999736 50.5279939,5.136 51.7119998,5.136 C52.8800057,5.136 53.9599949,5.39999736 54.9519998,5.928 C55.9440048,6.45600264 56.7359969,7.219995 57.3279998,8.22 C57.9200028,9.220005 58.2159998,10.3919933 58.2159998,11.736 C58.2159998,13.0640066 57.9200028,14.223995 57.3279998,15.216 C56.7359969,16.208005 55.9440048,16.9719973 54.9519998,17.508 C53.9599949,18.0440027 52.8720058,18.312 51.6879998,18.312 Z M51.6879998,16.032 C52.3760033,16.032 53.0159969,15.8560018 53.6079998,15.504 C54.2000028,15.1519982 54.675998,14.6520032 55.0359998,14.004 C55.3960016,13.3559968 55.5759998,12.5920044 55.5759998,11.712 C55.5759998,10.8479957 55.4040016,10.0880033 55.0599998,9.432 C54.7159981,8.77599672 54.2480028,8.27600172 53.6559998,7.932 C53.0639969,7.58799828 52.4160034,7.416 51.7119998,7.416 C51.0079963,7.416 50.3600028,7.59199824 49.7679998,7.944 C49.1759969,8.29600176 48.7000016,8.79599676 48.3399998,9.444 C47.979998,10.0920032 47.7999998,10.8559956 47.7999998,11.736 C47.7999998,12.6000043 47.9759981,13.3599967 48.3279998,14.016 C48.6800016,14.6720033 49.1519969,15.1719983 49.7439998,15.516 C50.3360028,15.8600017 50.9839963,16.032 51.6879998,16.032 Z" id="Combined-Shape"></path>
            </g>
        </g>
    </g>
</svg>