<svg xmlns="http://www.w3.org/2000/svg" viewBox="0 0 64 64" x="0px" y="0px"><g><path d="M61,10H57v2h3V41H54a1,1,0,0,0-1,1v6H39v2H54a1.005,1.005,0,0,0,.707-.293l7-7a1,1,0,0,0,.2-.293c.014-.031.022-.061.033-.093a1,1,0,0,0,.052-.26c0-.021.012-.04.012-.061V11A1,1,0,0,0,61,10ZM55,46.586V43h3.586Z"/><path d="M6,50h6V48H6a2,2,0,0,1,0-4H9a1,1,0,0,0,1-1V12H44V10H10V5A1,1,0,0,0,9,4H6A4,4,0,0,0,2,8V46A4,4,0,0,0,6,50ZM4,8A2,2,0,0,1,6,6H8V42H6a3.97,3.97,0,0,0-2,.537V8Z"/><path d="M46,5V37a1,1,0,0,0,1,1h7a1,1,0,0,0,1-1V5a1,1,0,0,0-1-1H47A1,1,0,0,0,46,5Zm7,1V36H48V34h2V32H48V30h2V28H48V26h2V24H48V22h2V20H48V18h2V16H48V14h2V12H48V10h2V8H48V6Z"/><path d="M14.617,29.076A1,1,0,0,0,14,30V59a1,1,0,0,0,1,1H44a1,1,0,0,0,.707-1.707l-29-29A1,1,0,0,0,14.617,29.076ZM16,32.414,41.586,58H16Z"/><path d="M32.707,53.293l-12-12A1,1,0,0,0,19,42V54a1,1,0,0,0,1,1H32a1,1,0,0,0,.707-1.707ZM21,53V44.414L29.586,53Z"/><path d="M39.707,44.707l2-2A1,1,0,0,0,42,42V20a3,3,0,0,0-6,0V42a1,1,0,0,0,.293.707l2,2a1,1,0,0,0,1.414,0ZM39,19a1,1,0,0,1,1,1v1H38V20A1,1,0,0,1,39,19ZM38,41.586V23h2V41.586l-1,1Z"/><path d="M25,25h6a1,1,0,0,0,1-1V18a1,1,0,0,0-1-1H24a4,4,0,0,0,0,8Zm5-6v4H26V19Zm-8,2a2,2,0,0,1,2-2v4A2,2,0,0,1,22,21Z"/></g></svg>
